<?xml version="1.0" encoding="utf-8"?>
<!-- Generator: Adobe Illustrator 23.0.1, SVG Export Plug-In . SVG Version: 6.00 Build 0)  -->
<svg version="1.1" id="Layer_1" xmlns="http://www.w3.org/2000/svg" xmlns:xlink="http://www.w3.org/1999/xlink" x="0px" y="0px"
	 viewBox="0 0 100 81.4" style="enable-background:new 0 0 100 81.4;" xml:space="preserve">
<style type="text/css">
	.st0{fill:#E0BA7E;}
	.st1{fill:#333132;}
	.st2{fill:#007660;}
	.st3{fill:#B13029;}
	.st4{clip-path:url(#SVGID_2_);}
	.st5{fill:#D86931;}
	.st6{clip-path:url(#SVGID_4_);}
	.st7{clip-path:url(#SVGID_6_);}
	.st8{clip-path:url(#SVGID_8_);}
	.st9{clip-path:url(#SVGID_10_);}
	.st10{clip-path:url(#SVGID_12_);}
	.st11{clip-path:url(#SVGID_14_);}
</style>
<g>
	<g>
		<g>
			<path class="st0" d="M49.9,81.4c-3.1,0-5.9-0.8-8.5-2.5c-0.5-0.3-1.1-0.7-1.6-1.2c-2.3,0-4.4-1.1-5.6-2.9c-0.7-1-1-2.1-1.1-3.2
				c-8.6-1.3-15.9-3.4-21.3-6.3c-5.8-3.1-9-6.9-9-11L0,37.4l0.7-0.5C4,34.3,8.2,32,13.2,30.1c5.4-2,11.6-3.6,18.5-4.6
				c0.4-4.8,1.5-11.2,4.2-16.3C39,3.2,43.8,0,50,0c6.2,0,10.9,3.1,14.2,9.3c2.7,5.2,3.8,11.5,4.2,16.3c6.9,1,13.1,2.5,18.5,4.6l0,0
				c5,1.9,9.2,4.1,12.5,6.8l0.7,0.5l-2.8,17c-0.1,4.1-3.2,7.8-9,11c-5.4,2.9-12.7,5-21.3,6.3c-0.1,1.1-0.4,2.2-1.1,3.2
				c-1.2,1.8-3.3,2.9-5.6,2.9c-0.5,0.4-1.1,0.8-1.6,1.2C55.8,80.5,53,81.4,49.9,81.4z M40.7,74.9l0.5,0.4c0.6,0.5,1.1,0.9,1.7,1.3
				c2.1,1.3,4.5,2,7,2c2.5,0,4.9-0.7,7-2c0.6-0.4,1.1-0.8,1.7-1.3l0.5-0.4h0.6c0.1,0,0.2,0,0.3,0c1.4,0,2.7-0.6,3.4-1.7
				c0.7-1,0.8-2.3,0.3-3.6L63.5,69l0.3-0.6c0.2-0.3,0.3-0.7,0.5-1.1l1.2-2.7l1.4,2.6c0.2,0.4,0.4,0.9,0.6,1.3
				c15.9-2.5,26.8-8.4,26.8-14.4V54l2.6-15.6c-3-2.2-6.7-4.2-11-5.8l0,0C80.4,30.5,74.1,29,67,28l-1.2-0.2l-0.1-1.2
				C64.1,6.1,55.1,2.9,49.9,2.9S35.7,6.1,34.3,26.9l-0.1,1.2L33,28.3c-7.1,1-13.5,2.5-19,4.6c-4.4,1.6-8.1,3.6-11,5.8l2.6,15.6v0.1
				c0,6.1,11,11.9,26.8,14.4c0.2-0.4,0.3-0.9,0.6-1.3l1.4-2.6l1.2,2.7c0.2,0.4,0.3,0.7,0.5,1.1l0.3,0.6l-0.2,0.6
				c-0.5,1.3-0.4,2.6,0.3,3.6c0.7,1.1,2,1.7,3.4,1.7c0.1,0,0.2,0,0.3,0L40.7,74.9z"/>
		</g>
		<g>
			<path class="st0" d="M86.2,31.5c-5.7-2.1-12.3-3.7-19.4-4.7c-0.7-11.2-4.5-25.3-17-25.3s-16.3,14.2-17,25.3
				c-7.1,1-13.7,2.5-19.4,4.6c-4.8,1.8-8.9,4-12.1,6.5l2.3,13.6l0.5,2.7c0,7.3,12.2,13.6,29.3,16c0.1-0.8,0.4-1.5,0.8-2.3
				c0.2,0.4,0.3,0.8,0.5,1.1c-1.5,3.8,1.2,7.2,5,7.2c0.1,0,0.2,0,0.4,0c0.6,0.5,1.2,1,1.9,1.4c2.3,1.5,4.9,2.2,7.8,2.2
				c2.8,0,5.4-0.8,7.8-2.2c0.6-0.4,1.3-0.9,1.9-1.4c0.1,0,0.2,0,0.4,0c3.8,0,6.5-3.4,5-7.2c0.2-0.4,0.4-0.7,0.5-1.1
				c0.4,0.7,0.6,1.5,0.8,2.3c17.2-2.5,29.3-8.7,29.3-16l0.5-2.7l2.3-13.6C95.1,35.5,91,33.3,86.2,31.5z"/>
		</g>
	</g>
	<g>
		<path class="st1" d="M49.9,70.7c5.7,0,5.7,5.7,10,5.7c4.3,0,7.1-4.3,4.3-8.6c0,0,0,4.3-2.9,4.3c-2.9,0,0-8.6-11.4-8.6
			s-8.6,8.6-11.4,8.6c-2.9,0-2.9-4.3-2.9-4.3c-2.9,4.3,0,8.6,4.3,8.6S44.2,70.7,49.9,70.7z"/>
	</g>
	<g>
		<g>
			<path class="st2" d="M49.9,37.1c-25.2,0-45.6,7.7-45.6,17.2c0,7.3,12.2,13.6,29.3,16c0.1-0.8,0.4-1.5,0.8-2.3
				c-0.6-1.3-1.1-2.6-1.5-4c-1.6-1.3-2.6-3.4-2.6-5.6c0-1.2,0.3-2.3,0.8-3.3l0,0C31,54.8,31,54.5,31,54.2c0-3.9,8.5-7.1,19.1-7.1
				s19.1,3.2,19.1,7.1c0,0.3-0.1,0.6-0.1,0.9l0,0c0.5,1,0.8,2.1,0.8,3.3c0,2.3-1,4.3-2.6,5.6c-0.4,1.4-0.9,2.7-1.5,4
				c0.4,0.7,0.6,1.5,0.8,2.3c17.2-2.5,29.3-8.7,29.3-16C95.5,44.8,75.1,37.1,49.9,37.1z"/>
		</g>
	</g>
	<g>
		<path class="st3" d="M3.8,51.6c3.3-8.8,22.4-15.4,46.1-15.4S92.7,42.8,96,51.6L98.3,38c-3.2-2.5-7.3-4.7-12.1-6.5
			c-9.9-3.7-22.8-5.8-36.3-5.8s-26.4,2-36.3,5.8c-4.8,1.8-8.9,4-12.1,6.5L3.8,51.6z"/>
	</g>
	<g>
		<g>
			<defs>
				<path id="SVGID_1_" d="M7.1,54.3H1.5V20.1h5.6V54.3z M24.3,20.1h-8.6v34.2h8.6V20.1z M41.3,20.1h-8.6v34.2h8.6V20.1z M58.5,20.1
					h-8.6v34.2h8.6V20.1z M75.5,20.1H67v34.2h8.6V20.1z M92.7,20.1h-8.6v34.2h8.6V20.1z"/>
			</defs>
			<clipPath id="SVGID_2_">
				<use xlink:href="#SVGID_1_"  style="overflow:visible;"/>
			</clipPath>
			<g class="st4">
				<path class="st5" d="M3.8,51.6c3.3-8.8,22.4-15.4,46.1-15.4S92.7,42.8,96,51.6L98.3,38c-3.2-2.5-7.3-4.7-12.1-6.5
					c-9.9-3.7-22.8-5.8-36.3-5.8s-26.4,2-36.3,5.8c-4.8,1.8-8.9,4-12.1,6.5L3.8,51.6z"/>
			</g>
		</g>
	</g>
	<g>
		<g>
			<defs>
				<path id="SVGID_3_" d="M3.8,51.6c3.3-8.8,22.4-15.4,46.1-15.4S92.7,42.8,96,51.6L98.3,38c-3.2-2.5-7.3-4.7-12.1-6.5
					c-9.9-3.7-22.8-5.8-36.3-5.8s-26.4,2-36.3,5.8c-4.8,1.8-8.9,4-12.1,6.5L3.8,51.6z"/>
			</defs>
			<clipPath id="SVGID_4_">
				<use xlink:href="#SVGID_3_"  style="overflow:visible;"/>
			</clipPath>
			<g class="st6">
				<g>
					<circle class="st3" cx="2.8" cy="43.8" r="1.6"/>
				</g>
				<g>
					<circle class="st5" cx="11.4" cy="38.1" r="1.6"/>
				</g>
				<g>
					<circle class="st3" cx="20" cy="34.9" r="1.6"/>
				</g>
				<g>
					<circle class="st5" cx="28.5" cy="32.8" r="1.6"/>
				</g>
				<g>
					<circle class="st3" cx="37" cy="31.6" r="1.6"/>
				</g>
				<g>
					<circle class="st5" cx="45.6" cy="31" r="1.6"/>
				</g>
				<g>
					<circle class="st3" cx="54.2" cy="31" r="1.6"/>
				</g>
				<g>
					<circle class="st5" cx="62.8" cy="31.6" r="1.6"/>
				</g>
				<g>
					<circle class="st3" cx="71.3" cy="32.8" r="1.6"/>
				</g>
				<g>
					<circle class="st5" cx="79.8" cy="34.9" r="1.6"/>
				</g>
				<g>
					<circle class="st3" cx="88.4" cy="38.1" r="1.6"/>
				</g>
				<g>
					<circle class="st5" cx="97" cy="43.8" r="1.6"/>
				</g>
			</g>
		</g>
	</g>
	<g>
		<g>
			<defs>
				<path id="SVGID_5_" d="M3.8,51.6c3.3-8.8,22.4-15.4,46.1-15.4S92.7,42.8,96,51.6L98.3,38c-3.2-2.5-7.3-4.7-12.1-6.5
					c-9.9-3.7-22.8-5.8-36.3-5.8s-26.4,2-36.3,5.8c-4.8,1.8-8.9,4-12.1,6.5L3.8,51.6z"/>
			</defs>
			<clipPath id="SVGID_6_">
				<use xlink:href="#SVGID_5_"  style="overflow:visible;"/>
			</clipPath>
			<g class="st7">
				<path class="st3" d="M98.4,39.3l-0.7-0.6c-3.1-2.5-7.1-4.6-11.8-6.4c-9.8-3.7-22.6-5.7-35.9-5.7s-26.1,2-35.9,5.7
					c-4.7,1.8-8.7,3.9-11.8,6.4l-0.7,0.6l-1.4-1.5L1,37.3c3.3-2.6,7.4-4.8,12.4-6.7c9.9-3.8,22.9-5.8,36.5-5.8s26.6,2.1,36.6,5.8
					c4.9,1.8,9.1,4.1,12.4,6.7l0.7,0.6L98.4,39.3z"/>
			</g>
		</g>
		<g>
			<defs>
				<path id="SVGID_7_" d="M3.8,51.6c3.3-8.8,22.4-15.4,46.1-15.4S92.7,42.8,96,51.6L98.3,38c-3.2-2.5-7.3-4.7-12.1-6.5
					c-9.9-3.7-22.8-5.8-36.3-5.8s-26.4,2-36.3,5.8c-4.8,1.8-8.9,4-12.1,6.5L3.8,51.6z"/>
			</defs>
			<clipPath id="SVGID_8_">
				<use xlink:href="#SVGID_7_"  style="overflow:visible;"/>
			</clipPath>
			<g class="st8">
				<path class="st3" d="M95.4,52.8l-0.3-0.9c-1.5-4-6.8-7.7-14.8-10.4c-8.3-2.8-19.1-4.3-30.4-4.3c-11.4,0-22.2,1.5-30.4,4.3
					c-8.1,2.7-13.3,6.4-14.8,10.4l-0.3,0.9l-1.8-0.7l0.3-0.9c1.7-4.6,7.3-8.6,16-11.6c8.5-2.9,19.5-4.4,31-4.4
					c11.5,0,22.6,1.6,31,4.4c8.7,2.9,14.3,6.9,16,11.6l0.3,0.9L95.4,52.8z"/>
			</g>
		</g>
	</g>
	<g>
		<g>
			<defs>
				<path id="SVGID_9_" d="M49.9,25.7c5.8,0,11.6,0.4,17,1.1l0,0c-0.7-11.2-4.5-25.3-17-25.3s-16.3,14.2-17,25.3
					C38.3,26.1,44.1,25.7,49.9,25.7z"/>
			</defs>
			<clipPath id="SVGID_10_">
				<use xlink:href="#SVGID_9_"  style="overflow:visible;"/>
			</clipPath>
			<g class="st9">
				<path class="st5" d="M49.9,107.1c-16.6,0-32.1-2.5-44.8-7.3c-8.3-3.1-15.4-7.2-21-12.2c-10-8.9-15.6-20.8-15.6-33.3
					s5.5-24.5,15.6-33.3c5.6-5,12.6-9.1,21-12.2C17.8,4,33.3,1.5,49.9,1.5S82,4,94.7,8.8c8.3,3.1,15.4,7.2,21,12.2
					c10.1,8.9,15.6,20.8,15.6,33.3s-5.5,24.5-15.6,33.3c-5.6,5-12.6,9.1-21,12.2C82,104.6,66.5,107.1,49.9,107.1z"/>
			</g>
		</g>
		<g>
			<defs>
				<path id="SVGID_11_" d="M49.9,25.7c5.8,0,11.6,0.4,17,1.1l0,0c-0.7-11.2-4.5-25.3-17-25.3s-16.3,14.2-17,25.3
					C38.3,26.1,44.1,25.7,49.9,25.7z"/>
			</defs>
			<clipPath id="SVGID_12_">
				<use xlink:href="#SVGID_11_"  style="overflow:visible;"/>
			</clipPath>
			<g class="st10">
				<path class="st2" d="M49.9,101.4c-16,0-30.7-2.4-42.8-6.9c-29.6-11.1-32.8-31.7-32.8-40.1s3.2-29,32.8-40.1
					c12.1-4.7,26.8-7.1,42.8-7.1s30.7,2.4,42.8,6.9c29.6,11.1,32.8,31.7,32.8,40.1s-3.2,29-32.8,40.1C80.6,99,65.9,101.4,49.9,101.4
					z"/>
				<path class="st3" d="M49.9,101.8c-16,0-30.8-2.4-42.9-7c-29.9-11.2-33.1-32-33.1-40.5S-23,25,7,13.7c12.2-4.6,26.9-7,42.9-7
					s30.8,2.4,42.9,7c29.9,11.3,33.1,32.1,33.1,40.6s-3.2,29.3-33.1,40.6C80.7,99.4,65.9,101.8,49.9,101.8z M49.9,7.7
					c-15.9,0-30.6,2.4-42.6,6.9c-29.3,11-32.5,31.4-32.5,39.7S-22.1,83,7.3,94c12,4.5,26.7,6.9,42.6,6.9s30.6-2.4,42.6-6.9
					C121.9,83,125,62.6,125,54.3s-3.2-28.7-32.5-39.7C80.5,10.1,65.8,7.7,49.9,7.7z"/>
			</g>
		</g>
		<g>
			<defs>
				<path id="SVGID_13_" d="M49.9,25.7c5.8,0,11.6,0.4,17,1.1l0,0c-0.7-11.2-4.5-25.3-17-25.3s-16.3,14.2-17,25.3
					C38.3,26.1,44.1,25.7,49.9,25.7z"/>
			</defs>
			<clipPath id="SVGID_14_">
				<use xlink:href="#SVGID_13_"  style="overflow:visible;"/>
			</clipPath>
			<g class="st11">
				<path class="st5" d="M49.9,92.8c-14.7,0-28.8-2.3-39.8-6.4c-6.6-2.5-12.2-5.7-16.5-9.5c-7-6.2-10.8-14.2-10.8-22.7
					s3.9-16.5,10.8-22.7c4.3-3.8,9.8-7,16.5-9.5c11-4.1,25-6.4,39.8-6.4s28.8,2.3,39.8,6.4c6.7,2.5,12.2,5.7,16.5,9.5
					c7,6.2,10.8,14.2,10.8,22.7s-3.8,16.5-10.8,22.7c-4.3,3.8-9.8,7-16.5,9.5C78.7,90.5,64.6,92.8,49.9,92.8z"/>
				<path class="st3" d="M49.9,93.3C35.1,93.3,21,91,10,86.9c-6.7-2.5-12.3-5.7-16.6-9.6c-7.1-6.3-11-14.5-11-23.1s3.9-16.8,11-23.1
					c4.3-3.8,9.9-7.1,16.6-9.6c11-4.1,25.2-6.4,39.9-6.4c14.8,0,28.9,2.3,39.9,6.4c6.7,2.5,12.3,5.7,16.6,9.6
					c7.1,6.3,11,14.5,11,23.1s-3.9,16.8-11,23.1c-4.3,3.8-9.9,7.1-16.6,9.6C78.8,91,64.7,93.3,49.9,93.3z M49.9,16.3
					c-14.7,0-28.7,2.3-39.6,6.4C3.7,25-1.8,28.2-6,31.9c-6.9,6.1-10.6,14-10.6,22.4S-12.9,70.6-6,76.6c4.2,3.8,9.7,6.9,16.3,9.4
					c10.9,4.1,25,6.4,39.6,6.4s28.7-2.3,39.6-6.4c6.6-2.5,12.1-5.6,16.3-9.4c6.9-6.1,10.6-14,10.6-22.4s-3.8-16.3-10.6-22.4
					c-4.2-3.8-9.7-6.9-16.3-9.4C78.6,18.5,64.6,16.3,49.9,16.3z"/>
			</g>
		</g>
	</g>
</g>
</svg>
