<?xml version="1.0" encoding="utf-8"?>
<!-- Generator: Adobe Illustrator 23.0.1, SVG Export Plug-In . SVG Version: 6.00 Build 0)  -->
<svg version="1.1" id="Layer_1" xmlns="http://www.w3.org/2000/svg" xmlns:xlink="http://www.w3.org/1999/xlink" x="0px" y="0px"
	 viewBox="0 0 216 216" style="enable-background:new 0 0 216 216;" xml:space="preserve">
<style type="text/css">
	.st0{fill:#231F20;}
</style>
<path class="st0" d="M175.5,117.7v48.8h-135v-48.8c-15.9-7-27-22.8-27-41.2c0-24.8,20.2-45,45-45c4.3,0,8.4,0.6,12.3,1.7
	c8.1-11.9,21.8-19.7,37.2-19.7c15.4,0,29.1,7.8,37.2,19.7c3.9-1.1,8-1.7,12.3-1.7c24.8,0,45,20.2,45,45
	C202.5,94.9,191.4,110.8,175.5,117.7z M40.5,202.5h135v-27h-135V202.5z"/>
</svg>
