<?xml version="1.0" encoding="utf-8"?>
<!-- Generator: Adobe Illustrator 23.0.1, SVG Export Plug-In . SVG Version: 6.00 Build 0)  -->
<svg version="1.1" id="Layer_1" xmlns="http://www.w3.org/2000/svg" xmlns:xlink="http://www.w3.org/1999/xlink" x="0px" y="0px"
	 viewBox="0 0 216 216" style="enable-background:new 0 0 216 216;" xml:space="preserve">
<style type="text/css">
	.st0{fill:#231F20;}
</style>
<path class="st0" d="M202.5,58.5h-36v-45h-117v45h-36v99h27v9h9v36h117v-36h9v-9h27V58.5z M58.5,22.5h99v36h-99V22.5z M157.5,193.5
	h-99v-27v-9v-9v-27h99v27v9v9V193.5z M117,144H72v-9h45V144z M126,135h18v9h-18V135z M99,153h45v9H99V153z M90,162H72v-9h18V162z
	 M72,171h72v9H72V171z"/>
</svg>
