<?xml version="1.0" encoding="utf-8"?>
<!-- Generator: Adobe Illustrator 23.0.1, SVG Export Plug-In . SVG Version: 6.00 Build 0)  -->
<svg version="1.1" id="Layer_1" xmlns="http://www.w3.org/2000/svg" xmlns:xlink="http://www.w3.org/1999/xlink" x="0px" y="0px"
	 viewBox="0 0 216 216" style="enable-background:new 0 0 216 216;" xml:space="preserve">
<style type="text/css">
	.st0{fill:#231F20;}
</style>
<path class="st0" d="M108,13.5c-52.1,0-94.5,42.4-94.5,94.5s42.4,94.5,94.5,94.5s94.5-42.4,94.5-94.5S160.1,13.5,108,13.5z
	 M108,193.5c-47.1,0-85.5-38.4-85.5-85.5S60.9,22.5,108,22.5s85.5,38.4,85.5,85.5S155.1,193.5,108,193.5z M108,27
	c-44.7,0-81,36.3-81,81s36.3,81,81,81s81-36.3,81-81S152.7,27,108,27z M150.7,138.9l-47.2-28.3V45h9v60.5l42.8,25.7L150.7,138.9z"/>
</svg>
