<?xml version="1.0" encoding="utf-8"?>
<!-- Generator: Adobe Illustrator 23.0.1, SVG Export Plug-In . SVG Version: 6.00 Build 0)  -->
<svg version="1.1" id="Layer_1" xmlns="http://www.w3.org/2000/svg" xmlns:xlink="http://www.w3.org/1999/xlink" x="0px" y="0px"
	 viewBox="0 0 100 80.5" style="enable-background:new 0 0 100 80.5;" xml:space="preserve">
<style type="text/css">
	.st0{fill:#E0BA7E;}
	.st1{fill:none;}
	.st2{fill:#333132;}
	.st3{fill:#8A5213;}
	.st4{fill:#5D463A;}
	.st5{fill:#884A14;}
</style>
<g>
	<path class="st0" d="M92.6,23.3c-3.7,0-7,2.4-11.2,5.5c-1.5,1.1-3.2,2.3-5,3.6C73.6,10.8,63.5,0,58.5,0c-2.5,0-3.8,0.7-5,1.2
		c-1,0.5-1.8,0.9-3.5,0.9s-2.5-0.4-3.5-0.9c-1.2-0.6-2.5-1.2-5-1.2c-5.1,0-15.2,10.8-17.9,32.3c-1.8-1.2-3.5-2.4-5-3.6
		c-4.2-3.1-7.5-5.5-11.2-5.5c-1.8,0-7.4,0-7.4,8.1c0,5.3,5.1,21.8,27.4,28.5c0.2,0.3,0.5,0.5,0.7,0.7c0.6,1.9,1.3,3.7,2.1,5.4
		c-0.6,2.1-0.5,4.1,0.5,6c1.4,2.5,4.1,4.1,7.1,4.2c3.5,2.8,7.6,4.3,12.1,4.3c4.5,0,8.6-1.5,12.1-4.3c3.1-0.1,5.8-1.6,7.1-4.2
		c1-1.8,1.2-3.9,0.5-6c0.8-1.7,1.5-3.5,2.1-5.4c0.3-0.2,0.5-0.5,0.7-0.7C95,53.2,100,36.6,100,31.4C100,29.3,100,23.3,92.6,23.3z"/>
	<path class="st1" d="M73.1,50c0.2-0.2,0.4-0.4,0.4-0.6c0-0.3-0.4-0.7-1.1-1c0,0,0,0,0,0c0,0,0,0,0,0h0c-3-1.3-11.9-2.2-22.4-2.2
		s-19.4,0.9-22.4,2.2h0c0,0,0,0,0,0c-0.7,0.3-1.1,0.6-1.1,1c0,0.2,0.1,0.4,0.4,0.6c-0.3,0.9-0.5,1.9-0.5,2.9c0,2.7,1.2,5.1,3.2,6.7
		c0.9,2.8,2,5.5,3.4,7.9C37.1,74.9,43,78.8,50,78.8s12.9-3.9,17.1-11.2c1.4-2.4,2.5-5.1,3.4-7.9c1.9-1.6,3.2-4,3.2-6.7
		C73.6,51.9,73.4,50.9,73.1,50z"/>
	<path class="st2" d="M50,67.7c6.8,0,6.8,6.8,11.9,6.8c5.1,0,8.5-5.1,5.1-10.2c0,0,0,5.1-3.4,5.1c-3.4,0,0-10.2-13.6-10.2
		S39.8,69.4,36.4,69.4S33,64.3,33,64.3c-3.4,5.1,0,10.2,5.1,10.2C43.2,74.5,43.2,67.7,50,67.7z"/>
	<path class="st3" d="M92.6,25c-8.5,0-17,17-42.6,17S15.9,25,7.4,25c-4.3,0-5.7,2.1-5.7,6.4c0,3.4,3.6,20.3,26.7,27.1
		c-1.2-1.5-1.9-3.4-1.9-5.5c0-1,0.2-2,0.5-2.9c-0.2-0.2-0.4-0.4-0.4-0.6c0-0.3,0.4-0.7,1.1-1c0,0,0,0,0,0h0c3-1.3,11.9-2.2,22.4-2.2
		s19.4,0.9,22.4,2.2h0c0,0,0,0,0,0c0,0,0,0,0,0c0.7,0.3,1.1,0.6,1.1,1c0,0.2-0.1,0.4-0.4,0.6c0.3,0.9,0.5,1.9,0.5,2.9
		c0,2.1-0.7,4-1.9,5.5c23-6.7,26.7-23.7,26.7-27.1C98.3,27.1,96.9,25,92.6,25z"/>
	<path class="st3" d="M50,40.7c11.1,0,18.9-3.3,24.8-7C72.4,11.4,62.2,1.7,58.5,1.7c-4.2,0-4.2,2.1-8.5,2.1s-4.2-2.1-8.5-2.1
		c-3.7,0-13.9,9.7-16.4,32.1C31.1,37.4,38.9,40.7,50,40.7z"/>
	<path class="st4" d="M50,40.7c10.3,0,17.7-2.8,23.5-6.2C68.8,34,61.2,33.4,50,33.4S31.2,34,26.5,34.6C32.3,37.9,39.7,40.7,50,40.7z
		"/>
	<path class="st5" d="M34.2,13c1.2-1.7,2.7-4,4.7-4.9c1.4-0.6,2.4,0.3,3.1,1.5c1.8,3.2,1.8,7.6,1.8,11.2c0,0.2,0.9,0.1,0.9-0.2
		c0-2.7-0.1-5.4-0.7-8.1C43.7,11,43.2,9,41.9,8c-3.3-2.5-7.1,2.9-8.5,5C33.2,13.2,34.1,13.2,34.2,13L34.2,13z"/>
	<path class="st5" d="M66.6,13c-1.5-2.1-5.4-7.5-8.6-5c-1.3,1-1.8,3-2.2,4.5c-0.6,2.6-0.7,5.4-0.7,8.1c0,0.3,0.9,0.4,0.9,0.2
		c0-3.6,0-8,1.8-11.3C58.6,8.4,59.7,7.5,61,8c2,0.9,3.6,3.2,4.8,4.9C65.9,13.2,66.8,13.3,66.6,13L66.6,13z"/>
</g>
</svg>
