<?xml version="1.0" encoding="utf-8"?>
<!-- Generator: Adobe Illustrator 23.0.1, SVG Export Plug-In . SVG Version: 6.00 Build 0)  -->
<svg version="1.1" id="Layer_1" xmlns="http://www.w3.org/2000/svg" xmlns:xlink="http://www.w3.org/1999/xlink" x="0px" y="0px"
	 viewBox="0 0 100 81.8" style="enable-background:new 0 0 100 81.8;" xml:space="preserve">
<style type="text/css">
	.st0{fill:#E0BA7E;}
	.st1{fill:#333132;}
	.st2{fill:#B23028;}
	.st3{fill:#C5342F;}
	.st4{fill:#231F20;}
</style>
<g>
	<path class="st0" d="M82,51.4c-0.1-0.1-0.2-0.2-0.2-0.4c1.9-0.6,4.7-1.6,7.6-3c3-1.5,5.4-3.1,7.1-4.9c2.3-2.3,3.5-4.9,3.5-7.6
		c0-2.5-1.1-4.5-3.3-6.2C95,28,92.7,27,90.2,25.9c-3.4-1.5-7.2-3.2-10-6.1c-2-2-3.4-4.3-5-6.9c-1.9-3.1-3.9-6.3-7-8.8
		C64.8,1.4,60.4,0,54.8,0h-2.6l1,2.5c0.7,1.9,1.2,3.7,1.4,5.4c-1.5-0.4-3-0.6-4.6-0.6s-3.1,0.2-4.6,0.6c0.2-1.7,0.7-3.6,1.4-5.4
		l1-2.5h-2.6c-5.6,0-10,1.4-13.4,4.2c-3.1,2.5-5,5.7-7,8.8c-1.5,2.5-3,4.9-5,6.9c-2.9,2.9-6.7,4.6-10,6.1C7.3,27,5,28,3.3,29.3
		C1.1,31,0,33.1,0,35.5c0,2.7,1.2,5.2,3.5,7.6c1.7,1.7,4.1,3.4,7.1,4.9c4.6,2.3,9.2,3.5,9.9,3.7c0.3,0.1,1.3,0.5,3,1
		c0,0.1,0,0.1,0,0.2c0,3.1,1.3,6,3.5,8.1c0.5,1.6,1.1,3.2,1.8,4.8c0.1,0.3,0.2,0.5,0.4,0.8c-1.2,3.9,0.4,7.8,3.9,9.7l0,0
		c0.1,0,0.1,0.1,0.2,0.1l0.1,0c0.1,0,0.1,0,0.2,0.1l0.1,0c0,0,0.1,0,0.1,0.1c0,0,0.1,0,0.1,0c0,0,0.1,0,0.1,0.1c0,0,0.1,0,0.1,0
		c0,0,0.1,0,0.1,0.1c0,0,0.1,0,0.1,0l0,0c0,0,0.1,0,0.1,0c0,0,0.1,0,0.1,0l0,0c0,0,0.1,0,0.1,0c0.1,0,0.2,0,0.3,0.1c0,0,0.1,0,0.1,0
		l0,0c0.1,0,0.1,0,0.2,0c0,0,0.1,0,0.1,0l0,0c0.1,0,0.1,0,0.2,0c0,0,0.1,0,0.1,0l0,0c0.1,0,0.1,0,0.2,0l0.1,0c0.1,0,0.1,0,0.2,0
		c0,0,0.1,0,0.1,0c0.1,0,0.1,0,0.2,0c0,0,0.1,0,0.1,0c0.1,0,0.1,0,0.2,0l0,0c0,0,0.1,0,0.1,0c0.1,0,0.1,0,0.2,0l0.1,0
		c0,0,0.1,0,0.1,0c0.7,0.5,1.3,1,2,1.5c3.2,2,6.8,3.1,10.7,3.1c3.8,0,7.4-1,10.7-3.1c0.7-0.4,1.4-0.9,2-1.5c0,0,0.1,0,0.1,0l0.1,0
		c0.1,0,0.1,0,0.2,0c0,0,0.1,0,0.1,0l0,0c0.1,0,0.1,0,0.2,0c0,0,0.1,0,0.1,0c0.1,0,0.1,0,0.2,0c0,0,0.1,0,0.1,0c0.1,0,0.1,0,0.2,0
		l0.1,0c0.1,0,0.1,0,0.2,0l0,0c0,0,0.1,0,0.1,0c0.1,0,0.1,0,0.2,0l0.1,0c0.1,0,0.1,0,0.2,0l0,0c0,0,0.1,0,0.1,0c0.1,0,0.2,0,0.3-0.1
		c0,0,0.1,0,0.1,0l0,0c0,0,0.1,0,0.1,0c0,0,0.1,0,0.1,0l0,0c0,0,0.1,0,0.1,0c0,0,0.1,0,0.1-0.1c0,0,0.1,0,0.1,0c0,0,0.1,0,0.1-0.1
		c0,0,0.1,0,0.1,0c0,0,0.1,0,0.1-0.1c0,0,0.1,0,0.1,0c0.1,0,0.1,0,0.2-0.1l0.1,0c0.1,0,0.1-0.1,0.2-0.1l0,0c3.5-1.9,5.1-5.8,3.9-9.7
		c0.1-0.3,0.2-0.5,0.4-0.8c0.5-1.1,1-2.3,1.4-3.5c2.9,5.9,9.7,8.3,10,8.4l4.9,1.6l-2.8-4.3c-0.8-1.2-1.5-2.4-2-3.5
		c2.2,0.5,4.5,0.3,6.9-0.7c2.9-1.1,4.9-2.9,5-3l3.8-3.5l-5.2,0.4C86.4,58.1,84.3,54.9,82,51.4z"/>
	<path class="st1" d="M21.1,50c0,0,13,4.8,28.9,4.8c16,0,28.9-4.8,28.9-4.8S64.5,40.4,50,40.4C35.5,40.4,21.1,50,21.1,50z"/>
	<g>
		<path class="st2" d="M75.9,47.8c0.2,1.7-0.2,4.9-2,6c2.1,2.4,3.8,5.6,5,6.7c6.9,5.9,14.4-1.1,14.4-1.1
			C80.8,60.4,81.5,49.2,75.9,47.8z"/>
		<path class="st3" d="M75.9,48c0.2,1.9-0.4,5.4-2.7,6.1c-1.9,10.8,10,14.7,10,14.7C75,56.5,82.6,53.2,75.9,48z"/>
		<path class="st2" d="M72.4,51c-0.3-1.7,1.4-2.3,1.1-4.9c0.6,0.7,1.3,1.5,2.3,1.7c0.3,1.8-0.2,5.6-2.7,6.3
			C73.7,52.9,72.6,51.7,72.4,51z"/>
	</g>
	<g>
		<path class="st0" d="M73.7,48.8c0.1-0.4,0.2-0.7,0.2-1.1c0-0.2,0-0.4-0.1-0.7c-5.5-2.8-14.7-6.7-23.8-6.7
			c-9.2,0-18.3,3.9-23.8,6.7c0,0.2-0.1,0.4-0.1,0.7c0,0.4,0.1,0.7,0.2,1.1c0,0,0,0,0,0c-0.6,1.2-1,2.6-1,4.1c0,2.8,1.3,5.4,3.3,7
			c0.5,1.7,1.2,3.4,1.9,5c0,0,0,0,0,0c0.2,0.5,0.4,0.9,0.7,1.4c-1.9,4.7,1.5,9,6.3,9c0.2,0,0.3,0,0.5,0c0.8,0.7,1.5,1.2,2.4,1.8
			C43.2,79,46.5,80,50,80c3.5,0,6.8-1,9.7-2.8c0.8-0.5,1.6-1.1,2.4-1.8c0.1,0,0.3,0,0.5,0c4.8,0,8.2-4.3,6.3-9
			c0.2-0.5,0.4-0.9,0.7-1.4c0,0,0,0,0,0c0.7-1.6,1.3-3.3,1.9-5c2-1.7,3.3-4.2,3.3-7C74.7,51.4,74.3,50,73.7,48.8
			C73.7,48.8,73.7,48.8,73.7,48.8z"/>
		<path class="st1" d="M50,68.3c7.2,0,7.2,7.2,12.5,7.2s9-5.4,5.4-10.7c0,0,0,5.4-3.6,5.4c-3.6,0,0-10.7-14.3-10.7
			S39.3,70.1,35.7,70.1c-3.6,0-3.6-5.4-3.6-5.4c-3.6,5.4,0,10.7,5.4,10.7S42.8,68.3,50,68.3z"/>
		<path class="st1" d="M73.8,47.1c-0.4-0.2-0.7-0.4-1.1-0.6c-21.9-1.6-43.2,1-46.6,1.5c0,0.3,0.1,0.5,0.2,0.8c0,0,0,0,0,0
			c0,0,0,0,0,0c0.9-0.1,3-0.4,6-0.7c-0.9,1-1.3,2.3-1.3,3.7c0,3.1,3.5,5.1,7.8,5c4.4,0,8-6,7.9-9.1c0-0.2,0-0.5-0.1-0.7
			c8.1-0.4,17.6-0.4,27.2,0.3C73.9,47.3,73.8,47.2,73.8,47.1z"/>
		<path class="st3" d="M73.8,47.1c-5.5-2.8-14.7-6.7-23.8-6.7c-9.2,0-18.3,3.9-23.8,6.7c0,0,23.8-9.1,47.5,1.7
			c0.1-0.4,0.2-0.7,0.2-1.1C73.9,47.5,73.9,47.3,73.8,47.1z"/>
	</g>
	<g>
		<circle class="st4" cx="50" cy="23.5" r="14.5"/>
		<circle class="st1" cx="50" cy="23.5" r="10.8"/>
	</g>
	<g>
		<path class="st1" d="M78.9,21.1C71.7,13.8,71,1.8,54.8,1.8c4.8,12.1-2.4,19.3-4.8,19.3s-9.6-7.2-4.8-19.3
			C29,1.8,28.3,13.8,21.1,21.1S1.8,28.3,1.8,35.5C1.8,45.2,21.1,50,21.1,50s14.5-9.6,28.9-9.6S78.9,50,78.9,50s19.3-4.8,19.3-14.5
			C98.2,28.3,86.2,28.3,78.9,21.1z"/>
		<path class="st4" d="M1.8,35.5C1.8,45.2,21.1,50,21.1,50s14.5-9.6,28.9-9.6S78.9,50,78.9,50s19.3-4.8,19.3-14.5
			c0-7.2-12.1-7.2-19.3-14.5S71,1.8,54.8,1.8c4.8,12.1-2.4,19.3-4.8,19.3s-9.6-7.2-4.8-19.3C29,1.8,28.3,13.8,21.1,21.1
			S1.8,28.3,1.8,35.5z M29.4,15.8c1.7-2.8,3.4-5.5,5.7-7.4c1.5-1.2,3.1-2,5.1-2.5c-0.3,2-0.4,3.9-0.2,5.8c0.3,3,1.3,5.8,2.9,8.2
			c2,3,4.7,4.8,7,4.8s5-1.8,7-4.8c1.6-2.3,2.6-5.2,2.9-8.2c0.2-1.9,0.1-3.8-0.2-5.8c2,0.5,3.7,1.3,5.1,2.5c2.3,1.9,4,4.6,5.7,7.4
			c1.6,2.7,3.3,5.4,5.8,7.8c3.6,3.6,7.9,5.5,11.7,7.2c4.9,2.2,6.6,3.2,6.6,4.7c0,1.4-1,4.3-7.5,7.6c-2.9,1.5-5.9,2.5-7.6,3
			c-4.2-2.5-16.7-9.3-29.5-9.3c-12.8,0-25.3,6.8-29.5,9.3c-1.7-0.5-4.7-1.5-7.6-3c-6.6-3.3-7.5-6.2-7.5-7.6C5.4,34,7,33,12,30.8
			c3.8-1.7,8.1-3.6,11.7-7.2C26.1,21.2,27.7,18.5,29.4,15.8z"/>
	</g>
</g>
</svg>
