<?xml version="1.0" encoding="utf-8"?>
<!-- Generator: Adobe Illustrator 23.0.1, SVG Export Plug-In . SVG Version: 6.00 Build 0)  -->
<svg version="1.1" id="Layer_1" xmlns="http://www.w3.org/2000/svg" xmlns:xlink="http://www.w3.org/1999/xlink" x="0px" y="0px"
	 viewBox="0 0 78.5 100" style="enable-background:new 0 0 78.5 100;" xml:space="preserve">
<style type="text/css">
	.st0{fill:#E0BA7E;}
	.st1{fill:none;}
	.st2{fill:#333132;}
	.st3{fill:#FCFAED;}
</style>
<g>
	<path class="st0" d="M78.5,24.4c0-10.3-8.4-18.7-18.7-18.7c-1.4,0-2.8,0.2-4.2,0.5C51,2.2,45.3,0,39.2,0c-6,0-11.8,2.2-16.2,6.2
		c-1.4-0.3-2.8-0.5-4.2-0.5C8.4,5.7,0,14.1,0,24.4c0,9,6.3,16.5,14.8,18.3v26.9c-0.3,1-0.5,2.1-0.5,3.1c0,2.9,1.2,5.6,3.3,7.6
		c0.6,1.9,1.3,3.7,2.1,5.3c-0.6,2-0.4,4.1,0.5,5.9c1.3,2.5,4,4.1,7,4.1c3.5,2.8,7.5,4.2,11.9,4.2c4.4,0,8.5-1.4,11.9-4.2
		c3-0.1,5.7-1.6,7-4.1c1-1.8,1.1-3.9,0.5-5.9c0.8-1.7,1.5-3.5,2.1-5.3c2.1-2,3.3-4.7,3.3-7.6c0-1.1-0.2-2.1-0.5-3.1V42.8
		C72.1,40.9,78.5,33.4,78.5,24.4z"/>
	<g>
		<path class="st1" d="M62,69.9C62,69.9,62,69.9,62,69.9c0-4.2-10.2-7.6-22.8-7.6s-22.8,3.4-22.8,7.6c0,0,0,0,0,0
			c-0.3,0.9-0.5,1.9-0.5,2.9c0,2.7,1.2,5.1,3.1,6.6c0.9,2.8,2,5.4,3.3,7.8c4.1,7.2,10,11.1,16.8,11.1c6.9,0,12.7-3.8,16.8-11.1
			c1.3-2.4,2.5-5,3.3-7.8c1.9-1.6,3.1-4,3.1-6.6C62.5,71.8,62.3,70.8,62,69.9z"/>
		<path class="st2" d="M39.2,87.4c6.7,0,6.7,6.7,11.8,6.7c5,0,8.4-5,5-10.1c0,0,0,5-3.4,5S52.7,79,39.2,79S29.1,89.1,25.8,89.1
			s-3.4-5-3.4-5c-3.4,5,0,10.1,5,10.1C32.5,94.1,32.5,87.4,39.2,87.4z"/>
		<path class="st3" d="M59.7,7.4c-1.6,0-3.2,0.2-4.7,0.7c-4.1-3.9-9.6-6.4-15.8-6.4S27.5,4.1,23.5,8c-1.5-0.4-3.1-0.7-4.7-0.7
			C9.3,7.4,1.7,15,1.7,24.4c0,9.4,7.6,17.1,17.1,17.1c1.6,0,3.2-0.2,4.7-0.7c4.1,3.9,9.6,6.4,15.8,6.4s11.7-2.4,15.8-6.4
			c1.5,0.4,3.1,0.7,4.7,0.7c9.4,0,17.1-7.6,17.1-17.1C76.8,15,69.1,7.4,59.7,7.4z"/>
		<path class="st3" d="M59.7,42.6c-1.5,0-3-0.2-4.4-0.5c-4.4,4-10.1,6.2-16.1,6.2c-6,0-11.7-2.2-16.1-6.2c-1.4,0.4-2.9,0.5-4.4,0.5
			c-0.8,0-1.5-0.1-2.3-0.1v27.5c0-4.2,10.2-7.6,22.8-7.6c12.6,0,22.8,3.4,22.8,7.6V42.5C61.2,42.6,60.5,42.6,59.7,42.6z"/>
	</g>
</g>
</svg>
