<?xml version="1.0" encoding="utf-8"?>
<!-- Generator: Adobe Illustrator 23.0.1, SVG Export Plug-In . SVG Version: 6.00 Build 0)  -->
<svg version="1.1" id="Layer_1" xmlns="http://www.w3.org/2000/svg" xmlns:xlink="http://www.w3.org/1999/xlink" x="0px" y="0px"
	 viewBox="0 0 100 77.6" style="enable-background:new 0 0 100 77.6;" xml:space="preserve">
<style type="text/css">
	.st0{fill:#E0BB7E;}
	.st1{fill:none;}
	.st2{fill:#333132;}
	.st3{fill:#E9D947;}
	.st4{fill:#0285BB;}
	.st5{fill:#948C21;}
</style>
<g>
	<path class="st0" d="M99.5,35.8c-0.4-0.3-1-0.4-1.5-0.2l-2.5,1.2l-1.2-2.5c-0.3-0.6-1.1-0.9-1.7-0.7l-4.4,1.5l-1.3-2.6
		c-0.4-0.7-1.2-1-1.9-0.6l-2.5,1.2l-1.2-2.5c-0.2-0.4-0.6-0.7-1-0.8c-0.5-0.1-0.9,0.1-1.2,0.4L78,31.2l-0.9-0.9
		c-0.6-0.6-1.5-0.6-2,0l-1.3,1.3v-1.7c0-0.7-0.5-1.3-1.2-1.4c-0.7-0.1-1.3,0.3-1.6,0.9c-1,2.9-2.1,4.5-2.7,5.1
		c-0.2-0.7-0.3-2.1,0.1-4.7c0.1-0.6-0.2-1.2-0.7-1.5c-0.5-0.3-1.2-0.2-1.6,0.2l-1.1,1c-0.3-2.5-0.4-5-0.4-7.6c0-4.6,0.4-9,1.1-13
		c0.1-0.7-0.2-1.3-0.8-1.6c-0.6-0.3-1.3-0.1-1.7,0.5l-2,2.7l-1.5-4c-0.2-0.5-0.7-0.9-1.3-0.9c0,0,0,0,0,0c-0.6,0-1.1,0.4-1.3,0.9
		l-1.8,4.7l-2-10.1C53.2,0.5,52.6,0,51.9,0c0,0,0,0,0,0c-0.7,0-1.2,0.4-1.4,1.1l-1.6,6.5L48.4,6c-0.2-0.7-0.9-1.1-1.6-0.9
		c-0.7,0.1-1.2,0.8-1.2,1.5c0.1,2.6,0,4.3-0.2,5.3c-0.6-1.4-1.4-4.1-2.1-8.2c-0.1-0.7-0.7-1.2-1.4-1.2c-0.7,0-1.3,0.4-1.4,1.1
		l-1.8,7.8l-1.9-2.5c-0.4-0.5-1-0.7-1.6-0.5c-0.6,0.2-1,0.8-0.9,1.4c0.2,3.6,0.1,7.4-0.3,11.4c0,0.2,0,0.4-0.1,0.6l0,0.1
		c-0.1,0.5-0.1,0.9-0.2,1.4c-0.3,2.4-0.7,4.8-1.3,7L32,30c-0.5-0.3-1.2-0.2-1.6,0.3l-0.6,0.6l-1-1.7c-0.3-0.6-1-0.8-1.7-0.6
		c-0.6,0.2-1,0.8-1,1.5c0.3,3.2-0.4,4.8-0.8,4.9c-0.4,0.1-1.8-0.9-3.2-4c-0.3-0.6-0.8-0.9-1.5-0.8c-0.6,0.1-1.1,0.5-1.2,1.2
		l-0.2,0.9c-0.3-0.3-0.8-0.4-1.2-0.4c-0.5,0.1-0.8,0.4-1,0.8l-0.6,1.2l-0.6-1.2c-0.2-0.5-0.7-0.8-1.3-0.8c-0.5,0-1,0.3-1.3,0.8l-1,2
		L11.8,34c-0.3-0.3-0.9-0.5-1.3-0.4c-0.5,0.1-0.9,0.5-1,0.9l-0.8,2.3l-0.3-0.7c-0.2-0.4-0.6-0.7-1-0.8c-0.5-0.1-0.9,0.1-1.2,0.4
		l-1.1,1.1l-2.8-1.4c-0.5-0.2-1.1-0.2-1.5,0.2c-0.4,0.3-0.6,0.9-0.5,1.5c1.2,4.7,4.1,8.9,8.8,12.5c5.2,4,12.5,7.1,21.1,8.9
		c0.5,0.9,1.1,1.6,1.8,2.3c0.5,1.6,1.1,3.1,1.8,4.5c-0.6,2-0.3,4,0.8,5.6c1.2,1.8,3.3,2.9,5.6,2.9c3,2.4,6.3,3.6,10.1,3.6
		c3.7,0,7.1-1.2,10.1-3.6c2.3,0,4.4-1.1,5.6-2.9c1.1-1.6,1.4-3.6,0.8-5.6c0.7-1.4,1.3-2.9,1.8-4.5c0.7-0.7,1.3-1.4,1.8-2.3
		c8.6-1.9,15.9-5,21.1-8.9c4.6-3.5,7.6-7.8,8.8-12.5C100.1,36.7,99.9,36.2,99.5,35.8z"/>
	<path class="st1" d="M69.3,52.1c0.2-0.2,0.3-0.3,0.3-0.5c0-0.3-0.3-0.5-0.9-0.8c0,0,0,0,0,0c0,0,0,0,0,0h0C66.2,49.8,58.8,49,50,49
		s-16.2,0.8-18.7,1.9h0c0,0,0,0,0,0c-0.6,0.3-0.9,0.5-0.9,0.8c0,0.2,0.1,0.3,0.3,0.5c-0.3,0.8-0.4,1.6-0.4,2.4c0,2.3,1,4.3,2.6,5.6
		c0.7,2.4,1.7,4.6,2.8,6.6c3.5,6.1,8.4,9.4,14.2,9.4s10.7-3.2,14.2-9.4c1.1-2,2.1-4.2,2.8-6.6c1.6-1.3,2.6-3.4,2.6-5.6
		C69.7,53.7,69.5,52.9,69.3,52.1z"/>
	<path class="st2" d="M50,66.9c5.7,0,5.7,5.7,10,5.7c4.3,0,7.1-4.3,4.3-8.5c0,0,0,4.3-2.8,4.3c-2.8,0,0-8.5-11.4-8.5
		c-11.4,0-8.5,8.5-11.4,8.5c-2.8,0-2.8-4.3-2.8-4.3c-2.8,4.3,0,8.5,4.3,8.5C44.3,72.6,44.3,66.9,50,66.9z"/>
	<g>
		<path class="st3" d="M63.2,22c0-4.8,0.4-9.3,1.2-13.3l-3.5,4.9l-2.4-6.4l-3.6,9.2L51.9,1.4l-2.7,11.2L47,6.4
			c0.2,4.6-0.3,7.8-1.2,7.9C44.6,14.5,43,10,41.9,3.8l-2.5,10.7l-3.7-4.8c0.3,4.2,0.1,8.8-0.6,13.7c-0.6,4.2-1.4,8.1-2.5,11.7h31.7
			C63.6,31.2,63.2,26.7,63.2,22z"/>
		<path class="st4" d="M50.9,27.3c3.7,2.1,6.7,4.9,8.9,7.8h4.6c-0.3-1.6-0.5-3.2-0.7-4.9c-3.1-3.9-8.1-7.1-14.1-8.7
			c-5-1.4-10-1.3-14.2-0.2c-0.1,0.7-0.2,1.4-0.3,2.1c0,0,0,0,0,0C40,23,45.6,24.3,50.9,27.3z"/>
		<path class="st5" d="M63.2,22c0-4.8,0.4-9.3,1.2-13.3l-3.5,4.9l-2.4-6.4l-3.6,9.2L51.9,1.4l-2.7,11.2L47,6.4
			c0.2,4.6-0.3,7.8-1.2,7.9C44.6,14.5,43,10,41.9,3.8l-2.5,10.7l-3.7-4.8c0.3,4.2,0.1,8.8-0.6,13.7c-0.6,4.2-1.4,8.1-2.5,11.7h1
			c1.1-3.6,1.9-7.5,2.4-11.6c0.5-3.8,0.7-7.4,0.7-11l3.2,4l2-8.4c0.3,1.4,0.7,2.6,1.1,3.6c0.6,1.7,1.5,3.7,3,3.5
			c0.5-0.1,1.5-0.2,2-3.6l1.5,4.3l2.4-10.1l2.7,13.9l3.9-10l2.2,5.8l2.2-3.1c-0.4,3.1-0.6,6.2-0.6,9.5c0,4.6,0.4,9,1.1,13.1h1
			C63.6,31.2,63.2,26.7,63.2,22z"/>
	</g>
	<path class="st5" d="M30.3,54.6c0-0.9,0.1-1.7,0.4-2.4c-0.2-0.2-0.3-0.3-0.3-0.5c0-0.3,0.3-0.5,0.9-0.8c0,0,0,0,0,0h0
		C33.8,49.8,41.2,49,50,49s16.2,0.8,18.7,1.9h0c0,0,0,0,0,0c0,0,0,0,0,0c0.6,0.3,0.9,0.5,0.9,0.8c0,0.2-0.1,0.3-0.3,0.5
		c0.3,0.8,0.4,1.6,0.4,2.4c0,1-0.2,2-0.6,2.9c8.3-1.7,15.8-4.7,21.2-8.8c-22.1-6.9-58.6-6.9-80.7,0c5.4,4.1,12.9,7.1,21.2,8.8
		C30.5,56.6,30.3,55.6,30.3,54.6z"/>
	<g>
		<path class="st3" d="M94.8,38.8L93,35.1l-5.6,1.9l-1.9-3.7l-3.7,1.9l-1.9-3.7L78,33.2l-1.9-1.9l-3.7,3.7v-5.1
			c-1.4,4-3.3,6.7-4.5,6.3c-1.1-0.3-1.4-3-0.9-6.5l-4,3.5v-3.7l-1.9,1.9l-1.9-1.9l-3.7,5.6l-1.9-5.6L50,33.2l-3.2-3.7l-2.4,5.6
			l-3.7-5.6l-1.9,1.9l-1.9-1.6l-1.9,3.5l-3.7-1.9l-1.9,1.9l-1.9-3.2c0.3,3.4-0.4,6-1.8,6.4c-1.5,0.4-3.5-1.6-4.9-4.8l-0.7,3.5
			l-1.9-1.9l-1.9,3.7l-1.9-3.7l-1.9,3.7l-1.9-1.9l-1.9,5.6L7,36.9l-1.9,1.9l-3.7-1.9c1.1,4.3,3.7,7.9,7.4,11l0.6-0.2
			c22.4-7,58.8-7,81.2,0l0.6,0.2c3.7-3.1,6.3-6.7,7.4-11L94.8,38.8z"/>
		<path class="st5" d="M98.6,36.9l-3.7,1.9L93,35.1l-5.6,1.9l-1.9-3.7l-3.7,1.9l-1.9-3.7L78,33.2l-1.9-1.9l-3.7,3.7v-5.1
			c-1.4,4-3.3,6.7-4.5,6.3c-1.1-0.3-1.4-3-0.9-6.5l-4,3.5v-3.7l-1.9,1.9l-1.9-1.9l-3.7,5.6l-1.9-5.6L50,33.2l-3.2-3.7l-2.4,5.6
			l-3.7-5.6l-1.9,1.9l-1.9-1.6l-1.9,3.5l-3.7-1.9l-1.9,1.9l-1.9-3.2c0.3,3.4-0.4,6-1.8,6.4c-1.5,0.4-3.5-1.6-4.9-4.8l-0.7,3.5
			l-1.9-1.9l-1.9,3.7l-1.9-3.7l-1.9,3.7l-1.9-1.9l-1.9,5.6L7,36.9l-1.9,1.9l-3.7-1.9c1.1,4.3,3.7,7.9,7.4,11l0.6-0.2
			c22.4-7,58.8-7,81.2,0l0.6,0.2C94.9,44.9,97.5,41.2,98.6,36.9z M91,46.8l-0.1,0c-11.3-3.5-26.1-5.3-40.9-5.3s-29.6,1.8-40.9,5.3
			l-0.1,0c-2.8-2.4-4.8-5.1-6-8.1l2.3,1.2l1.4-1.4l2.3,4.6l2.1-6.3l1.7,1.7l1.6-3.2l1.9,3.7l2.1-4.3l2.2,2.2l0.5-2.7
			c1.5,2.2,3.2,3.3,4.7,2.9c1.4-0.4,2.2-1.8,2.5-3.9l0.8,1.4l2.2-2.2l3.9,2l1.7-3.2l1.6,1.4l1.7-1.7l4.1,6.1l2.5-5.8l2.9,3.4
			l3.4-3.4l2,6l4.2-6.3l1.7,1.7l0.9-0.9v3.5l3.8-3.3c-0.1,2.3,0.2,4.7,1.8,5.2c1.4,0.4,2.7-1.1,3.8-2.8v3l4.7-4.7l1.9,1.9l1.6-1.6
			l1.7,3.4l3.7-1.9l1.8,3.6l5.6-1.9l1.9,3.8l2.6-1.3C95.8,41.7,93.8,44.4,91,46.8z"/>
	</g>
</g>
</svg>
