<?xml version="1.0" encoding="utf-8"?>
<!-- Generator: Adobe Illustrator 23.0.1, SVG Export Plug-In . SVG Version: 6.00 Build 0)  -->
<svg version="1.1" id="Layer_1" xmlns="http://www.w3.org/2000/svg" xmlns:xlink="http://www.w3.org/1999/xlink" x="0px" y="0px"
	 viewBox="0 0 75.2 100" style="enable-background:new 0 0 75.2 100;" xml:space="preserve">
<style type="text/css">
	.st0{fill:#E0BA7E;}
	.st1{fill:none;}
	.st2{fill:#333132;}
	.st3{fill:#B23028;}
	.st4{fill:#231F20;}
</style>
<g>
	<path class="st0" d="M75.2,49.8c0-3.3-0.9-7.2-3.5-9.4c-0.1-1.4-0.2-2.7-0.5-4c-0.1-0.7-0.3-1.3-0.4-1.9c-0.1-0.2-0.1-0.4-0.2-0.6
		l-0.1-0.3c0-0.1-0.1-0.2-0.1-0.3c-0.2-0.6-0.4-1.2-0.7-1.9c-0.3-0.6-0.5-1.2-0.8-1.7c-1.2-2.4-2.7-4.6-4.7-6.9
		c-0.5-0.6-1.1-1.2-1.7-1.8c-2.5-2.5-5.1-4.5-7.4-6.3l-0.5-0.4c-0.5-0.4-0.9-0.7-1.4-1.1c-0.4-0.3-0.8-0.7-1.2-1
		c-1.8-1.5-3.3-3-4.7-4.5C43.5,3.7,39.8,0,34,0c-5.3,0-9.2,4.7-12.4,8.5c-1.2,1.4-2.3,2.8-3.3,3.6C14.1,15.8,4.2,28.8,3.5,40.4
		c-2,1.7-3.3,4.6-3.5,8.3c-0.2,3.5,0.6,8.2,3.6,10.5c-0.3,1.1-0.4,2.2-0.4,3.3c0,4,1.7,7.8,4.6,10.5c0.8,2.6,1.8,5.1,2.9,7.4
		c-0.9,3.2-0.5,6.4,1.3,9.1c2,2.9,5.4,4.7,9.2,4.7C26,98,31.5,100,37.6,100c6.1,0,11.6-2,16.4-5.8c3.8-0.1,7.2-1.8,9.2-4.7
		c1.8-2.6,2.2-5.9,1.3-9.1c1.1-2.3,2.1-4.8,2.9-7.4c2.9-2.7,4.6-6.5,4.6-10.5c0-1.1-0.1-2.2-0.4-3.3C74.2,57.2,75.2,53.1,75.2,49.8z
		"/>
	<path class="st1" d="M68.9,58.6c0.3-0.2,0.5-0.5,0.5-0.8c0-0.5-0.5-0.9-1.4-1.3c0,0,0,0,0,0c0,0,0,0,0,0h0c-4-1.8-16.1-3-30.4-3
		s-26.3,1.3-30.4,3h0c0,0,0,0,0,0c-0.9,0.4-1.4,0.8-1.4,1.3c0,0.3,0.2,0.5,0.5,0.8c-0.4,1.2-0.7,2.6-0.7,4c0,3.7,1.7,7,4.3,9.1
		c1.2,3.9,2.7,7.5,4.6,10.7c5.7,10,13.7,15.2,23.2,15.2c9.4,0,17.5-5.3,23.2-15.2c1.8-3.2,3.4-6.9,4.6-10.7c2.6-2.2,4.3-5.5,4.3-9.1
		C69.6,61.2,69.4,59.9,68.9,58.6z"/>
	<path class="st2" d="M37.6,82.6c9.3,0,9.3,9.3,16.2,9.3c6.9,0,11.6-6.9,6.9-13.9c0,0,0,6.9-4.6,6.9c-4.6,0,0-13.9-18.5-13.9
		S23.7,84.9,19.1,84.9c-4.6,0-4.6-6.9-4.6-6.9c-4.6,6.9,0,13.9,6.9,13.9C28.3,91.9,28.3,82.6,37.6,82.6z"/>
	<g>
		<path class="st3" d="M34,2.3c-6,0-10.3,8.3-14.2,11.6S5.8,30.6,5.8,41.7l63.6,0c0-15.2-12.4-22.2-18.9-27.8S40.7,2.3,34,2.3z"/>
		<path class="st4" d="M50.5,13.9C44,8.3,40.7,2.3,34,2.3c-6,0-10.3,8.3-14.2,11.6C16,17.2,5.8,30.6,5.8,41.7v0.8h0.8v-0.8
			c0-10.7,9.9-23.8,13.8-27.2c1.2-1,2.4-2.5,3.7-4c2.9-3.5,6.1-7.4,10-7.4c4.5,0,7.4,3,11.1,6.7c1.5,1.5,3.1,3.1,4.9,4.7
			c1,0.8,2.1,1.7,3.2,2.6c6.5,5.1,15.4,12,15.4,24.6v0.8h0.8v-0.8C69.4,26.5,57.1,19.4,50.5,13.9z"/>
	</g>
	<g>
		<path class="st3" d="M69.4,41.7c4.6,2.3,4.6,13.9,0,16.2c0-0.5-0.5-0.9-1.4-1.3c-4-1.8-16.1-3-30.4-3v0c-14.3,0-26.3,1.3-30.4,3
			c-0.9,0.4-1.4,0.8-1.4,1.3c-4.6-2.3-4.6-13.9,0-16.2c0,0,9.3-4.6,31.8-4.6S69.4,41.7,69.4,41.7z"/>
		<path class="st4" d="M46,53.4c0.5-5.4,0.5-10.5,0-15.9c0.3,0,0.5,0,0.8,0c0.5,5.4,0.5,10.5,0,15.9C46.5,53.4,46.2,53.4,46,53.4z
			 M40.1,53.3c0.3,0,0.5,0,0.8,0c0.5-5.5,0.5-10.5,0-16c-0.3,0-0.5,0-0.8,0C40.6,42.8,40.6,47.8,40.1,53.3z M52.6,53.8
			c0.5-5.3,0.5-10.3,0-15.7c-0.3,0-0.5-0.1-0.8-0.1c0.5,5.4,0.5,10.4,0,15.7C52.1,53.7,52.4,53.8,52.6,53.8z M63.4,55.1
			c0.3,0,0.5,0.1,0.8,0.1c0.5-5.1,0.5-10,0-15C64,40.1,63.7,40,63.4,40C63.9,45,63.9,50,63.4,55.1z M69.1,41.8
			c0.5,5.2,0.5,10,0.1,15.2c0.2,0.2,0.4,0.4,0.5,0.6c0.1-0.1,0.2-0.1,0.3-0.2c0.5-5.1,0.5-9.9,0-15.1c-0.2-0.1-0.4-0.3-0.6-0.3
			C69.3,41.9,69.2,41.8,69.1,41.8z M58.3,54.3c0.5-5.2,0.5-10.2,0-15.4c-0.3,0-0.5-0.1-0.8-0.1c0.5,5.3,0.5,10.2,0,15.5
			C57.8,54.2,58,54.3,58.3,54.3z M29.2,37.5c-0.3,0-0.5,0-0.8,0C28,43,28,48,28.5,53.4c0.3,0,0.5,0,0.8,0
			C28.8,48,28.8,42.9,29.2,37.5z M23.3,38c-0.3,0-0.5,0.1-0.8,0.1c-0.5,5.3-0.5,10.3,0,15.7c0.3,0,0.5,0,0.8-0.1
			C22.9,48.4,22.9,43.4,23.3,38z M35.1,37.3c-0.3,0-0.5,0-0.8,0c-0.5,5.5-0.5,10.5,0,16c0.3,0,0.5,0,0.8,0
			C34.6,47.8,34.6,42.8,35.1,37.3z M17.7,38.8c-0.3,0-0.5,0.1-0.8,0.1c-0.5,5.2-0.5,10.2,0,15.4c0.3,0,0.5-0.1,0.8-0.1
			C17.2,48.9,17.2,44,17.7,38.8z M6.1,56.9c-0.5-5.1-0.4-10,0.1-15.1c-0.2,0.1-0.3,0.1-0.3,0.1c-0.2,0.1-0.4,0.2-0.6,0.3
			c-0.5,5.1-0.5,9.9,0,15c0.1,0.1,0.2,0.1,0.3,0.2C5.7,57.3,5.9,57.1,6.1,56.9z M11.8,40c-0.3,0.1-0.5,0.1-0.8,0.2
			c-0.5,5.1-0.5,10,0,15c0.2-0.1,0.5-0.1,0.8-0.1C11.3,50,11.3,45,11.8,40z"/>
		<path class="st4" d="M69.4,41.7c0,0-9.3-4.6-31.8-4.6S5.8,41.7,5.8,41.7c-4.6,2.3-4.6,13.9,0,16.2c0-0.5,0.5-0.9,1.4-1.3
			c4-1.8,16.1-3,30.4-3v0c14.3,0,26.3,1.3,30.4,3c0.9,0.4,1.4,0.8,1.4,1.3C74.1,55.5,74.1,44,69.4,41.7z M69.7,56.8
			c-0.5-0.5-1.1-0.8-1.4-0.9c-4.2-1.9-16.5-3.1-30.7-3.1c-14.1,0-26.4,1.2-30.7,3.1c-0.3,0.1-1,0.4-1.4,0.9c-1.5-1.2-2.4-3.9-2.4-7
			c0-3.5,1.2-6.5,3-7.4c0.1,0,9.4-4.5,31.5-4.5c22.1,0,31.4,4.5,31.5,4.5c1.8,0.9,3,3.9,3,7.4C72.1,52.9,71.2,55.5,69.7,56.8z"/>
	</g>
</g>
</svg>
